<svg xmlns="http://www.w3.org/2000/svg" viewBox="0 0 309 570"><defs><style>.cls-1,.cls-2{fill:#7e7e7f;}.cls-1{fill-rule:evenodd;}</style></defs><g id="レイヤー_2" data-name="レイヤー 2"><g id="contents"><path class="cls-1" d="M157,415.44a24.78,24.78,0,0,1-19.81-39.66,25.31,25.31,0,0,1,7.21-6.45,4.35,4.35,0,0,1,6.57,3.75v.63a4.36,4.36,0,0,1-2.07,3.71,15.53,15.53,0,1,0,16.2,0,4.36,4.36,0,0,1-2.07-3.71v-.63a4.35,4.35,0,0,1,6.57-3.75,25.14,25.14,0,0,1,7.21,6.45A24.77,24.77,0,0,1,157,415.44Z"/><path class="cls-1" d="M157,394.45a4.27,4.27,0,0,1-4.41-4.52V364.21a4.41,4.41,0,1,1,8.82,0v25.72A4.27,4.27,0,0,1,157,394.45Z"/><path class="cls-2" d="M295,0H14A14,14,0,0,0,0,14V556a14,14,0,0,0,14,14H295a14,14,0,0,0,14-14V14A14,14,0,0,0,295,0ZM285,535a6,6,0,0,1-6,6H35a6,6,0,0,1-6-6V496a6,6,0,0,1,6-6H279a6,6,0,0,1,6,6ZM157,425.54a35.88,35.88,0,1,1,35.87-35.88A35.87,35.87,0,0,1,157,425.54Zm14.67,29.09A14.67,14.67,0,1,1,157,440,14.67,14.67,0,0,1,171.67,454.63ZM82,274a15,15,0,1,1-15-15A15,15,0,0,1,82,274Zm-7.5-41a15,15,0,1,1,15,15A15,15,0,0,1,74.5,233Zm15,67a15,15,0,1,1-15,15A15,15,0,0,1,89.5,300ZM97,274a15,15,0,1,1,15,15A15,15,0,0,1,97,274Zm75,0a15,15,0,1,1-15-15A15,15,0,0,1,172,274Zm-7.5-41a15,15,0,1,1,15,15A15,15,0,0,1,164.5,233Zm-30,15a15,15,0,1,1,15-15A15,15,0,0,1,134.5,248Zm0,52a15,15,0,1,1-15,15A15,15,0,0,1,134.5,300Zm45,30a15,15,0,1,1,15-15A15,15,0,0,1,179.5,330Zm7.5-56a15,15,0,1,1,15,15A15,15,0,0,1,187,274Zm22.5-41a15,15,0,1,1,15,15A15,15,0,0,1,209.5,233Zm15,67a15,15,0,1,1-15,15A15,15,0,0,1,224.5,300Zm7.5-26a15,15,0,1,1,15,15A15,15,0,0,1,232,274Zm37.5,26a15,15,0,1,1-15,15A15,15,0,0,1,269.5,300Zm0-52a15,15,0,1,1,15-15A15,15,0,0,1,269.5,248Zm0-82a15,15,0,1,1,15-15A15,15,0,0,1,269.5,166ZM262,192a15,15,0,1,1-15-15A15,15,0,0,1,262,192Zm-37.5-26a15,15,0,1,1,15-15A15,15,0,0,1,224.5,166ZM217,192a15,15,0,1,1-15-15A15,15,0,0,1,217,192Zm-37.5-26a15,15,0,1,1,15-15A15,15,0,0,1,179.5,166ZM172,192a15,15,0,1,1-15-15A15,15,0,0,1,172,192Zm-37.5-26a15,15,0,1,1,15-15A15,15,0,0,1,134.5,166ZM127,192a15,15,0,1,1-15-15A15,15,0,0,1,127,192ZM89.5,166a15,15,0,1,1,15-15A15,15,0,0,1,89.5,166ZM82,192a15,15,0,1,1-15-15A15,15,0,0,1,82,192ZM44.5,166a15,15,0,1,1,15-15A15,15,0,0,1,44.5,166Zm0,52a15,15,0,1,1-15,15A15,15,0,0,1,44.5,218Zm0,82a15,15,0,1,1-15,15A15,15,0,0,1,44.5,300ZM285,104.82a6,6,0,0,1-6,6H35a6,6,0,0,1-6-6v-16a6,6,0,0,1,6-6H279a6,6,0,0,1,6,6ZM285,55a6,6,0,0,1-6,6H35a6,6,0,0,1-6-6V39a6,6,0,0,1,6-6H279a6,6,0,0,1,6,6Z"/></g></g></svg>