<svg xmlns="http://www.w3.org/2000/svg" viewBox="0 0 750 750"><defs><style>.cls-1{fill:#f4f4f4;}.cls-2{fill:#eaeaea;}.cls-3{fill:#c1c1c1;}.cls-4{fill:#afafaf;}</style></defs><g id="レイヤー_2" data-name="レイヤー 2"><g id="レイヤー_1-2" data-name="レイヤー 1"><path class="cls-1" d="M375,749.5a373.31,373.31,0,1,1,140.92-27.42A373.34,373.34,0,0,1,375,749.5Z"/><path class="cls-2" d="M375,1A372.88,372.88,0,1,1,234.26,28.39,372.59,372.59,0,0,1,375,1m0-1A373.82,373.82,0,0,0,109.84,109.83c-146.45,146.45-146.45,383.89,0,530.33a375,375,0,0,0,530.33,0c146.44-146.44,146.44-383.88,0-530.33A373.86,373.86,0,0,0,375,0Z"/><rect class="cls-3" x="164.8" y="164.8" width="420.4" height="420.4" transform="translate(-155.33 375) rotate(-45)"/><path class="cls-2" d="M375,78.44,671.56,375,375,671.56,78.44,375,375,78.44M375,77,77,375,375,673,673,375,375,77Z"/><rect class="cls-1" x="390.82" y="246.59" width="31.06" height="210.76" transform="translate(-129.86 390.42) rotate(-45)"/><path class="cls-1" d="M342.82,267.18,491.14,415.5l-21.26,21.26L321.56,288.43l21.26-21.25m0-1.42-22.68,22.67L469.88,438.17l22.67-22.67L342.82,265.76Z"/><rect class="cls-1" x="391.2" y="443.42" width="165.88" height="45.71" transform="translate(-190.83 471.84) rotate(-45)"/><path class="cls-1" d="M516.63,392.18l31.61,31.61L431.66,540.38,400,508.76,516.63,392.18m0-1.42-118,118,33,33,118-118-33-33Z"/><path class="cls-1" d="M404.07,552.77a38.15,38.15,0,0,1-27.15-11.25L222.34,386.94l26.79-26.79L430.86,541.88A38.16,38.16,0,0,1,404.07,552.77Z"/><path class="cls-1" d="M249.14,360.86l181,181a37.9,37.9,0,0,1-52.88-.7L223.05,386.94l26.09-26.08m0-1.42-27.51,27.5L376.57,541.88a38.89,38.89,0,0,0,55,0h0L249.14,359.44Z"/><rect class="cls-1" x="314.02" y="435.68" width="138.45" height="28.83" transform="translate(-206.02 402.83) rotate(-45)"/><path class="cls-1" d="M422,391.66l19.68,19.68-97.19,97.2-19.68-19.68L422,391.66m0-1.41-98.61,98.61L344.49,510l98.61-98.61L422,390.25Z"/><path class="cls-1" d="M317.72,191.15l33.95-33.94L549.3,354.85a48.48,48.48,0,0,1,.35,68.23Z"/><path class="cls-1" d="M351.67,157.92,549,355.2a48,48,0,0,1,.7,67.17L318.43,191.15l33.24-33.23m0-1.42L317,191.15,549.66,423.79a49,49,0,0,0,0-69.3l-198-198Z"/><rect class="cls-1" x="324.04" y="315.3" width="146.14" height="24.97" transform="translate(-115.47 376.81) rotate(-45)"/><path class="cls-1" d="M440,268l16.95,17L354.27,387.58l-16.95-17L440,268m0-1.41-104,104L354.27,389,458.32,285,440,266.58Z"/><rect class="cls-4" x="351.28" y="349.57" width="79.76" height="79.76" transform="translate(-160.81 390.65) rotate(-45)"/><path class="cls-1" d="M391.16,350.73l38.72,38.72-38.72,38.72-38.72-38.72,38.72-38.72m0-35.36-74.08,74.08,74.08,74.07,74.07-74.07-74.07-74.08Z"/><rect class="cls-1" x="214.6" y="329.44" width="145.59" height="39.22" transform="translate(-162.64 305.45) rotate(-45)"/><path class="cls-1" d="M325,284.42l27,27L249.79,413.68l-27-27L325,284.42m0-1.42L221.34,386.66l28.45,28.44L353.44,311.45,325,283Z"/></g></g></svg>