<svg xmlns="http://www.w3.org/2000/svg" viewBox="0 0 987.86 1117.66"><defs><style>.cls-1{fill:#fff;}.cls-2{fill:#8ed6fb;}.cls-3{fill:#1c78c0;}</style></defs><g id="レイヤー_2" data-name="レイヤー 2"><g id="svg56"><path id="path48" class="cls-1" d="M493.93,0,987.86,279.38v558.9L493.93,1117.66,0,838.28V279.38Z"/><path id="path50" class="cls-2" d="M899.67,819,510.27,1039.3V867.76l242.62-133.5Zm26.67-24.13V334.27L783.91,416.59v296.1ZM86.66,819l389.4,220.29V867.76L233.31,734.26ZM60,794.88V334.27l142.43,82.32v296.1ZM76.71,304.4,476.06,78.49v165.8L220.16,385.06l-2,1.15Zm832.91,0L510.27,78.49v165.8l255.9,140.64,2,1.15Z"/><path id="path52" class="cls-3" d="M476.06,828.71,236.63,697V436.24L476.06,574.47Zm34.21,0L749.7,697.12V436.24L510.27,574.47ZM252.84,406.12,493.17,274l240.32,132.1L493.17,544.86Z"/></g></g></svg>